<?xml version="1.0" standalone="no"?>
<!DOCTYPE svg PUBLIC "-//W3C//DTD SVG 20010904//EN"
 "http://www.w3.org/TR/2001/REC-SVG-20010904/DTD/svg10.dtd">
<svg version="1.0" xmlns="http://www.w3.org/2000/svg"
 width="300.000000pt" height="168.000000pt" viewBox="0 0 300.000000 168.000000"
 preserveAspectRatio="xMidYMid meet">

<g transform="translate(0.000000,168.000000) scale(0.100000,-0.100000)"
fill="#000000" stroke="none">
<path d="M0 840 l0 -840 1500 0 1500 0 0 840 0 840 -1500 0 -1500 0 0 -840z
m1574 444 c10 -4 16 -18 16 -36 0 -16 7 -36 15 -44 19 -20 19 -53 0 -61 -23
-8 -29 3 -31 59 -1 27 -7 55 -13 61 -21 21 -14 31 13 21z m-94 -90 c0 -14 -12
-19 -23 -8 -9 9 4 35 14 28 5 -3 9 -12 9 -20z m70 -64 c0 -5 -5 -10 -11 -10
-5 0 -7 5 -4 10 3 6 8 10 11 10 2 0 4 -4 4 -10z m341 -313 c-10 -9 -11 -8 -5
6 3 10 9 15 12 12 3 -3 0 -11 -7 -18z m-14 -69 c-3 -7 -5 -2 -5 12 0 14 2 19
5 13 2 -7 2 -19 0 -25z"/>
</g>
</svg>
